# xmcd
#
# Track frame offsets:
#	150
#	6964
#	18489
#	31346
#	43081
#	51046
#	69816
#	80639
#	95199
#	104027
#	116739
#	130744
#	138096
#	160731
#	174120
#	180390
#	192505
#	199104
#	212743
#	232205
#	254782
#	265888
#	282859
#	293655
#	303931
#	315141
#	324766
#
# Disc length: 4496 seconds
#
# Revision: 0
# Processed by: cddbd v1.5.2PL0 Copyright (c) Steve Scherf et al.
# Submitted via: audiograbber 1.83.01
#
DISCID=7d118e1b
DTITLE=Pat Boone - April Love &Tammy And The Bachelor
DYEAR=1900
DGENRE=
TTITLE0=April Love Main Title
TTITLE1=Clover In The Meadow
TTITLE2=Tugfire
TTITLE3=Give Me A Gentle Girl
TTITLE4=First Meeting
TTITLE5=Give Me A Gentle Girl
TTITLE6=April Love
TTITLE7=Tugfire's Escape
TTITLE8=April Love
TTITLE9=The Sulky Race
TTITLE10=Did It Yourself
TTITLE11=Lover's Quarrel
TTITLE12=Tugfire's Illness
TTITLE13=The Bentonville Fair
TTITLE14=April Love Finale
TTITLE15=April Love
TTITLE16=Main Title - Tammy
TTITLE17=Tammy
TTITLE18=By The River
TTITLE19=Tammy And Pete Go Swimming
TTITLE20=Grandpa Goes To Jail
TTITLE21=The Bachelor
TTITLE22=Tammy
TTITLE23=French Heels
TTITLE24=Never Mind The Noise In The Market
TTITLE25=Carolina In The Morning
TTITLE26=All Grown Up
EXTD=
EXTT0=
EXTT1=
EXTT2=
EXTT3=
EXTT4=
EXTT5=
EXTT6=
EXTT7=
EXTT8=
EXTT9=
EXTT10=
EXTT11=
EXTT12=
EXTT13=
EXTT14=
EXTT15=
EXTT16=
EXTT17=
EXTT18=
EXTT19=
EXTT20=
EXTT21=
EXTT22=
EXTT23=
EXTT24=
EXTT25=
EXTT26=
PLAYORDER=
